<svg width="562" height="292" viewBox="0 0 562 292" fill="none" xmlns="http://www.w3.org/2000/svg">
<g clip-path="url(#clip0_34_38)">
<path d="M135.248 287.042L121.404 265.031L135.254 289.44L135.262 291.948C136.249 291.936 137.227 291.898 138.195 291.834L137.066 259.616L137.08 259.367L137.055 259.319L136.947 256.275L151.422 232.152L136.932 253.995L136.889 254.64L136.036 230.298L148.48 205.339L135.939 226.021L135.356 175.567L135.353 175.399L135.351 175.564L135.067 215.344L123.176 199.427L135.077 218.77L135.132 240.558L124.1 219.515L135.139 243.761L135.169 255.876L119.143 226.577L135.182 260.102L135.248 287.042Z" fill="#E2E2E2"/>
<path d="M254.047 287.042L240.203 265.031L254.054 289.44L254.061 291.948C255.049 291.936 256.026 291.898 256.994 291.834L255.865 259.616L255.88 259.367L255.854 259.319L255.747 256.275L270.222 232.152L255.732 253.995L255.689 254.64L254.836 230.298L267.28 205.339L254.738 226.021L254.155 175.567L254.152 175.399L254.15 175.564L253.866 215.344L241.975 199.428L253.877 218.77L253.932 240.558L242.899 219.515L253.938 243.761L253.969 255.876L237.942 226.577L253.981 260.102L254.047 287.042Z" fill="#E2E2E2"/>
<path d="M16.3355 288.458L6.33889 272.564L16.3402 290.189L16.3455 292C17.0587 291.992 17.7647 291.964 18.4635 291.918L17.6481 268.653L17.6588 268.474L17.6405 268.439L17.5628 266.241L28.0152 248.821L17.552 264.595L17.5207 265.06L16.9048 247.483L25.8905 229.46L16.8346 244.395L16.4133 207.962L16.4114 207.841L16.4099 207.96L16.2048 236.685L7.61853 225.192L16.2124 239.159L16.2523 254.891L8.28545 239.697L16.2567 257.204L16.2788 265.953L4.70612 244.796L16.2878 269.004L16.3355 288.458Z" fill="#E2E2E2"/>
<path d="M542.979 287.042L529.135 265.031L542.985 289.44L542.993 291.948C543.98 291.936 544.958 291.898 545.926 291.834L544.796 259.616L544.811 259.367L544.786 259.319L544.678 256.275L559.153 232.152L544.663 253.995L544.62 254.64L543.767 230.298L556.211 205.339L543.67 226.021L543.086 175.567L543.084 175.399L543.082 175.564L542.798 215.344L530.907 199.427L542.808 218.77L542.863 240.558L531.83 219.515L542.869 243.761L542.9 255.876L526.874 226.577L542.913 260.102L542.979 287.042Z" fill="#E2E2E2"/>
<path d="M167.533 253.811H242.213V250.64H167.533V253.811Z" fill="black"/>
<path d="M163.736 250.64H238.416V247.47H163.736V250.64Z" fill="black"/>
<path d="M168.166 247.47H242.846V244.3H168.166V247.47Z" fill="black"/>
<path d="M175.76 244.3H250.441V241.129H175.76V244.3Z" fill="black"/>
<path d="M112.218 245.563H114.811V227.12H112.218V245.563Z" fill="#3F3D56"/>
<path d="M112.213 226.886L113.188 229.293L209.139 190.275L208.164 187.868L112.213 226.886Z" fill="#3F3D56"/>
<path d="M64.2497 273.099H86.8079V264.267H64.2497V273.099Z" fill="#3F3D56"/>
<path d="M66.324 281.932H177.56V272.06H66.324V281.932Z" fill="#3F3D56"/>
<path d="M84.6038 276.996H111.311V243.355H91.3452L84.6038 260.322V276.996Z" fill="#E2E2E2"/>
<path d="M95.7535 256.864H107.162V245.434H95.7535V256.864Z" fill="white"/>
<path d="M87.1967 256.993H94.4571V245.564H91.3453L87.1967 256.993Z" fill="white"/>
<path d="M104.051 268.294H106.644V263.358H104.051V268.294Z" fill="#3F3D56"/>
<path d="M92.253 257.773H92.1234C91.4701 257.773 90.8435 257.513 90.3816 257.05C89.9196 256.587 89.6601 255.959 89.6601 255.305C89.6601 254.65 89.9196 254.023 90.3816 253.56C90.8435 253.097 91.4701 252.837 92.1234 252.837H92.253V257.773Z" fill="#3F3D56"/>
<path d="M188.709 276.996H188.579C187.926 276.996 187.299 276.736 186.838 276.273C186.376 275.81 186.116 275.183 186.116 274.528C186.116 273.874 186.376 273.246 186.838 272.783C187.299 272.32 187.926 272.06 188.579 272.06H188.709V276.996Z" fill="#3F3D56"/>
<path d="M74.2323 272.023C72.304 272.048 70.4061 272.508 68.6798 273.369C66.9534 274.23 65.443 275.469 64.2609 276.996H59.1935L64.12 263.247L87.0672 258.713L86.419 276.996H84.2038C83.0217 275.469 81.5113 274.23 79.7849 273.369C78.0585 272.508 76.1606 272.048 74.2323 272.023Z" fill="#E2E2E2"/>
<path d="M73.973 291.543C80.2023 291.543 85.2522 286.484 85.2522 280.243C85.2522 274.002 80.2023 268.943 73.973 268.943C67.7437 268.943 62.6939 274.002 62.6939 280.243C62.6939 286.484 67.7437 291.543 73.973 291.543Z" fill="#3F3D56"/>
<path d="M73.9731 286.19C77.2516 286.19 79.9095 283.528 79.9095 280.243C79.9095 276.958 77.2516 274.296 73.9731 274.296C70.6945 274.296 68.0367 276.958 68.0367 280.243C68.0367 283.528 70.6945 286.19 73.9731 286.19Z" fill="#E2E2E2"/>
<path d="M175.874 291.413C181.316 291.413 185.727 286.994 185.727 281.542C185.727 276.09 181.316 271.671 175.874 271.671C170.432 271.671 166.021 276.09 166.021 281.542C166.021 286.994 170.432 291.413 175.874 291.413Z" fill="#3F3D56"/>
<path d="M175.874 286.737C178.738 286.737 181.06 284.411 181.06 281.542C181.06 278.673 178.738 276.346 175.874 276.346C173.01 276.346 170.688 278.673 170.688 281.542C170.688 284.411 173.01 286.737 175.874 286.737Z" fill="#E2E2E2"/>
<path d="M110.533 278.035H115.978V238.679H110.533V278.035Z" fill="#3F3D56"/>
<path d="M110.533 273.229H188.839V270.891H110.533V273.229Z" fill="#3F3D56"/>
<path d="M90.6973 258.552H93.2902V257.513H90.6973V258.552Z" fill="#3F3D56"/>
<path d="M205.304 253.791C205.279 253.764 205.26 253.732 205.249 253.697C205.238 253.662 205.234 253.626 205.238 253.589L208.814 219.71C208.82 219.646 208.85 219.588 208.898 219.545C208.945 219.502 209.007 219.478 209.07 219.478H209.072C209.135 219.478 209.197 219.501 209.244 219.544C209.292 219.586 209.322 219.644 209.329 219.708L213.197 253.517C213.201 253.553 213.197 253.589 213.186 253.624C213.176 253.659 213.157 253.691 213.133 253.718C213.109 253.745 213.08 253.767 213.047 253.782C213.014 253.798 212.978 253.806 212.942 253.806L205.498 253.876H205.496C205.459 253.876 205.424 253.869 205.391 253.854C205.358 253.839 205.328 253.818 205.304 253.791ZM209.082 222.109L205.784 253.354L212.649 253.289L209.082 222.109Z" fill="#3F3D56"/>
<path d="M64.1677 263.448L64.289 263.494C64.9 263.725 65.3942 264.19 65.6629 264.787C65.9316 265.384 65.9527 266.063 65.7216 266.675C65.4904 267.287 65.0261 267.782 64.4306 268.051C63.8351 268.32 63.1572 268.342 62.5462 268.11L62.4249 268.064L64.1677 263.448Z" fill="#3F3D56"/>
<path d="M207.896 225.821H210.489V187.894H207.896V225.821Z" fill="#3F3D56"/>
<path d="M113.515 231.276C115.52 231.276 117.145 229.648 117.145 227.639C117.145 225.631 115.52 224.002 113.515 224.002C111.51 224.002 109.885 225.631 109.885 227.639C109.885 229.648 111.51 231.276 113.515 231.276Z" fill="#3F3D56"/>
<path d="M118.801 270.93H193.481V267.76H118.801V270.93Z" fill="black"/>
<path d="M123.231 267.76H197.911V264.59H123.231V267.76Z" fill="black"/>
<path d="M120.067 265.224H194.747V262.053H120.067V265.224Z" fill="black"/>
<path d="M124.497 262.053H199.177V258.883H124.497V262.053Z" fill="black"/>
<path d="M241.975 77.5087C244.355 77.5059 246.655 78.3648 248.453 79.927C249.874 79.5384 251.363 79.4728 252.812 79.7352C254.012 77.9911 255.737 76.6769 257.735 75.9849C259.733 75.2928 261.899 75.259 263.918 75.8884C265.937 76.5179 267.702 77.7775 268.955 79.4834C270.208 81.1893 270.884 83.2519 270.884 85.37H232.28C232.753 83.1457 233.974 81.1515 235.739 79.7207C237.503 78.2898 239.705 77.509 241.975 77.5087Z" fill="#E2E2E2"/>
<path d="M183.898 108.798C186.148 108.796 188.323 109.608 190.023 111.085C191.366 110.717 192.773 110.655 194.143 110.903C195.278 109.254 196.908 108.012 198.797 107.358C200.686 106.703 202.735 106.671 204.643 107.266C206.552 107.861 208.22 109.052 209.405 110.665C210.59 112.278 211.229 114.228 211.229 116.23H174.732C175.18 114.127 176.334 112.242 178.002 110.889C179.671 109.537 181.752 108.799 183.898 108.798Z" fill="#E2E2E2"/>
<path d="M125.832 57.1909C128.173 57.1882 130.437 58.033 132.205 59.5698C133.602 59.1874 135.067 59.1229 136.493 59.381C137.673 57.6654 139.369 56.3728 141.335 55.692C143.3 55.0113 145.432 54.978 147.417 55.5972C149.403 56.2163 151.139 57.4554 152.372 59.1334C153.604 60.8113 154.269 62.8403 154.269 64.9238H116.296C116.762 62.7358 117.963 60.7742 119.698 59.3667C121.434 57.9593 123.599 57.1912 125.832 57.1909Z" fill="#E2E2E2"/>
<path d="M376.565 155.462V234.659H407.306V154.362L400.17 154.617V138.412H394.994L394.141 102.522C396.23 101.159 397.7 97.9202 397.7 94.1388C397.702 93.0532 397.576 91.9711 397.324 90.9152C398.312 89.8436 398.918 88.4738 399.047 87.0204C399.175 85.5669 398.818 84.1119 398.033 82.8831C398.69 83.4582 399.454 83.8968 400.281 84.1735C401.109 84.4503 401.983 84.5596 402.853 84.4951C403.723 84.4307 404.571 84.1938 405.349 83.7981C406.127 83.4025 406.818 82.856 407.384 82.1905C407.949 81.5249 408.376 80.7534 408.642 79.9209C408.907 79.0884 409.005 78.2114 408.929 77.3408C408.853 76.4702 408.605 75.6234 408.2 74.8494C407.795 74.0755 407.24 73.3899 406.569 72.8324C407.698 72.4148 408.692 71.6951 409.442 70.7515C410.192 69.8079 410.669 68.6764 410.822 67.48C410.976 66.2836 410.799 65.0681 410.311 63.9654C409.823 62.8627 409.043 61.915 408.055 61.2253C407.067 60.5356 405.91 60.1303 404.708 60.0533C403.507 59.9764 402.307 60.2307 401.24 60.7888C400.172 61.3469 399.278 62.1873 398.654 63.2188C398.03 64.2503 397.7 65.4334 397.7 66.6396C397.7 66.7362 397.703 66.8321 397.707 66.9277C396.802 66.6508 395.849 66.5723 394.911 66.6973C393.974 66.8223 393.074 67.148 392.274 67.6522C391.473 68.1563 390.79 68.8273 390.271 69.6193C389.752 70.4114 389.409 71.3061 389.265 72.2427C388.444 71.753 387.526 71.4483 386.575 71.3497C385.624 71.2512 384.663 71.3611 383.759 71.672C382.855 71.9828 382.029 72.487 381.339 73.1497C380.649 73.8123 380.111 74.6176 379.762 75.5094C379.414 76.4012 379.264 77.3584 379.322 78.3143C379.379 79.2703 379.644 80.2021 380.098 81.0452C380.551 81.8883 381.182 82.6225 381.947 83.1967C382.712 83.7709 383.593 84.1714 384.528 84.3704C384.527 84.4184 384.524 84.4659 384.524 84.5141C385.136 86.3639 385.915 88.1539 386.851 89.8621C386.393 91.241 386.164 92.6856 386.172 94.1387C386.172 97.9202 387.641 101.159 389.73 102.522L388.877 138.412H383.701V155.206L376.565 155.462ZM395.761 79.8388L395.778 79.8392C395.873 79.8392 395.968 79.8361 396.062 79.832C396.121 80.0271 396.189 80.2181 396.265 80.4049C396.108 80.2067 395.94 80.0177 395.761 79.8388Z" fill="#E2E2E2"/>
<path d="M359.638 291.033H452.962V182.869H359.638V291.033Z" fill="#3F3D56"/>
<path d="M393.72 291.033H418.88V269.033H393.72V291.033Z" fill="#E2E2E2"/>
<path d="M328.536 40.551C328.534 40.6309 328.53 40.7101 328.53 40.7904C328.529 42.2614 328.823 43.7176 329.395 45.0724C329.966 46.4273 330.805 47.6529 331.859 48.6765C332.024 49.0284 332.207 49.3714 332.408 49.7038C331.645 52.002 331.262 54.4097 331.275 56.8316C331.275 65.1846 335.576 71.9561 340.882 71.9561C346.188 71.9561 350.489 65.1846 350.489 56.8316C350.493 55.0222 350.283 53.2187 349.863 51.4589C351.51 49.6729 352.52 47.39 352.733 44.9676C352.947 42.5452 352.353 40.1202 351.044 38.0723C352.139 39.0306 353.413 39.7615 354.792 40.2226C356.171 40.6838 357.627 40.8659 359.077 40.7584C360.527 40.651 361.941 40.2561 363.237 39.5967C364.533 38.9374 365.686 38.0266 366.628 36.9173C367.57 35.8081 368.283 34.5224 368.725 33.1349C369.167 31.7475 369.33 30.2859 369.203 28.8349C369.077 27.384 368.664 25.9726 367.989 24.6827C367.314 23.3929 366.39 22.2502 365.271 21.321C367.153 20.625 368.809 19.4255 370.059 17.8528C371.309 16.2801 372.105 14.3943 372.36 12.4003C372.615 10.4063 372.32 8.38031 371.507 6.54246C370.694 4.70461 369.394 3.12516 367.747 1.97568C366.101 0.826196 364.172 0.150647 362.169 0.0224081C360.167 -0.105831 358.168 0.318146 356.389 1.24828C354.61 2.17842 353.119 3.57915 352.079 5.29831C351.039 7.01747 350.489 8.98933 350.489 10.9997C350.489 11.1607 350.494 11.3205 350.501 11.4798C348.993 11.0185 347.404 10.8875 345.842 11.0959C344.279 11.3042 342.78 11.8469 341.445 12.6873C340.111 13.5276 338.972 14.6457 338.107 15.9659C337.242 17.286 336.671 18.7772 336.432 20.3382C335.063 19.522 333.533 19.0141 331.948 18.8499C330.363 18.6856 328.761 18.8688 327.254 19.3868C325.747 19.9049 324.371 20.7453 323.221 21.8497C322.071 22.9541 321.174 24.2962 320.593 25.7826C320.013 27.269 319.762 28.8642 319.858 30.4575C319.955 32.0508 320.396 33.6039 321.152 35.0091C321.908 36.4143 322.96 37.6378 324.235 38.5948C325.51 39.5519 326.978 40.2194 328.536 40.551ZM347.286 32.999C347.445 32.999 347.602 32.9937 347.759 32.987C347.857 33.3121 347.97 33.6304 348.098 33.9419C347.836 33.6115 347.556 33.2964 347.258 32.9983L347.286 32.999Z" fill="#E2E2E2"/>
<path d="M335.391 147.12H346.371L345.979 130.622V130.616L344.542 70.1205C343.44 70.7954 342.173 71.1525 340.881 71.1525C339.589 71.1525 338.322 70.7954 337.22 70.1205L335.783 130.616V130.622L335.391 147.12Z" fill="black"/>
<path d="M315.265 159.034V291.033H366.497V157.202L354.605 157.627V130.622H327.157V158.61L315.265 159.034Z" fill="black"/>
<path d="M459.373 40.551C459.371 40.6309 459.366 40.7101 459.366 40.7904C459.365 42.2614 459.659 43.7176 460.231 45.0724C460.803 46.4273 461.641 47.6529 462.695 48.6765C462.86 49.0284 463.043 49.3714 463.244 49.7038C462.481 52.002 462.099 54.4097 462.111 56.8316C462.111 65.1846 466.412 71.9561 471.718 71.9561C477.024 71.9561 481.325 65.1846 481.325 56.8316C481.329 55.0222 481.119 53.2187 480.699 51.4589C482.346 49.6729 483.356 47.39 483.57 44.9676C483.784 42.5452 483.189 40.1202 481.88 38.0723C482.975 39.0306 484.249 39.7616 485.628 40.2227C487.007 40.6838 488.464 40.866 489.913 40.7585C491.363 40.6511 492.777 40.2562 494.073 39.5968C495.37 38.9375 496.522 38.0267 497.464 36.9174C498.406 35.8082 499.119 34.5225 499.561 33.135C500.003 31.7475 500.166 30.2859 500.04 28.8349C499.913 27.384 499.501 25.9726 498.826 24.6827C498.15 23.3929 497.226 22.2502 496.107 21.321C497.989 20.625 499.645 19.4255 500.895 17.8528C502.145 16.2801 502.941 14.3943 503.196 12.4003C503.452 10.4063 503.157 8.38031 502.343 6.54246C501.53 4.70461 500.23 3.12516 498.584 1.97568C496.937 0.826195 495.008 0.150648 493.006 0.0224081C491.003 -0.105831 489.004 0.318146 487.225 1.24828C485.446 2.17842 483.956 3.57915 482.915 5.29831C481.875 7.01747 481.325 8.98933 481.325 10.9997C481.325 11.1607 481.33 11.3205 481.337 11.4798C479.83 11.0185 478.241 10.8875 476.678 11.0959C475.116 11.3042 473.616 11.8469 472.282 12.6873C470.947 13.5276 469.809 14.6457 468.943 15.9659C468.078 17.286 467.507 18.7772 467.268 20.3382C465.899 19.522 464.369 19.0141 462.784 18.8499C461.199 18.6856 459.598 18.8688 458.091 19.3868C456.584 19.9049 455.207 20.7453 454.057 21.8497C452.907 22.9541 452.01 24.2962 451.43 25.7826C450.849 27.269 450.598 28.8642 450.695 30.4575C450.791 32.0508 451.233 33.6039 451.988 35.0091C452.744 36.4143 453.796 37.6378 455.071 38.5948C456.346 39.5519 457.814 40.2194 459.373 40.551ZM478.123 32.999C478.281 32.999 478.438 32.9936 478.595 32.987C478.694 33.3121 478.807 33.6304 478.934 33.9419C478.673 33.6115 478.392 33.2964 478.094 32.9983L478.123 32.999Z" fill="#E2E2E2"/>
<path d="M466.229 147.12H477.208L475.378 70.1228C473.012 70.9745 470.424 70.9745 468.058 70.1228L466.229 147.12Z" fill="black"/>
<path d="M446.101 159.034V291.033H497.339V157.202L493.13 157.354L485.441 157.627V130.622H457.993V158.61L446.101 159.034Z" fill="black"/>
<path d="M420.223 208.605H432.881V195.924H420.223V208.605Z" fill="white"/>
<path d="M399.971 208.605H412.629V195.924H399.971V208.605Z" fill="white"/>
<path d="M379.719 208.605H392.377V195.924H379.719V208.605Z" fill="white"/>
<path d="M420.223 228.895H432.881V216.214H420.223V228.895Z" fill="white"/>
<path d="M399.971 228.895H412.629V216.214H399.971V228.895Z" fill="white"/>
<path d="M379.719 228.895H392.377V216.214H379.719V228.895Z" fill="white"/>
<path d="M420.223 249.185H432.881V236.504H420.223V249.185Z" fill="white"/>
<path d="M399.971 249.185H412.629V236.504H399.971V249.185Z" fill="white"/>
<path d="M379.719 249.185H392.377V236.504H379.719V249.185Z" fill="white"/>
<path d="M334.553 203.533H347.211V190.851H334.553V203.533Z" fill="white"/>
<path d="M334.553 223.823H347.211V211.141H334.553V223.823Z" fill="white"/>
<path d="M334.553 244.112H347.211V231.431H334.553V244.112Z" fill="white"/>
<path d="M334.553 264.402H347.211V251.721H334.553V264.402Z" fill="white"/>
<path d="M465.284 203.533H477.941V190.851H465.284V203.533Z" fill="white"/>
<path d="M465.284 223.823H477.941V211.141H465.284V223.823Z" fill="white"/>
<path d="M465.284 244.112H477.941V231.431H465.284V244.112Z" fill="white"/>
<path d="M465.284 264.402H477.941V251.721H465.284V264.402Z" fill="white"/>
<path d="M562 290.586H0V291.854H562V290.586Z" fill="#3F3D56"/>
</g>
<defs>
<clipPath id="clip0_34_38">
<rect width="562" height="292" fill="white"/>
</clipPath>
</defs>
</svg>
