<svg width="417" height="249" viewBox="0 0 417 249" fill="none" xmlns="http://www.w3.org/2000/svg">
<g clip-path="url(#clip0_14_536)">
<path d="M319.265 246.184C313.926 241.679 310.684 234.561 311.534 227.632C312.384 220.703 317.652 214.333 324.484 212.862C331.317 211.391 339.105 215.464 341.18 222.13C342.322 209.278 343.639 195.887 350.48 184.943C356.674 175.033 367.404 167.942 379.032 166.673C390.66 165.405 402.903 170.196 410.155 179.363C417.407 188.529 419.182 201.855 414.103 212.379C410.362 220.132 403.468 225.902 396.246 230.595C372.907 245.635 344.916 251.751 317.421 247.818L319.265 246.184Z" fill="#F2F2F2"/>
<path d="M398.656 170.462C389.061 178.267 380.259 186.996 372.377 196.524C360.041 211.384 350.059 228.044 342.779 245.925C342.246 247.229 344.366 247.797 344.893 246.507C356.806 217.447 375.824 191.834 400.207 172.01C401.301 171.12 399.742 169.578 398.656 170.462Z" fill="white"/>
<path d="M134.239 244.96C141.572 238.772 146.026 228.996 144.858 219.479C143.69 209.962 136.455 201.213 127.071 199.192C117.686 197.171 106.989 202.765 104.138 211.921C102.57 194.269 100.762 175.877 91.3656 160.845C82.8573 147.234 68.1207 137.494 52.1495 135.752C36.1784 134.009 19.3628 140.59 9.40218 153.18C-0.558443 165.771 -2.99726 184.074 3.9789 198.529C9.118 209.177 18.586 217.102 28.5062 223.549C60.1548 244.117 99.4149 252.695 136.771 247.204" fill="#F2F2F2"/>
<path d="M25.1959 140.955C38.3741 151.675 50.4636 163.666 61.2898 176.752C72.1176 189.825 81.6504 203.916 89.7542 218.827C94.2838 227.191 98.3529 235.796 101.943 244.604C102.675 246.396 99.7623 247.175 99.0384 245.404C92.679 229.876 84.8112 215.008 75.5479 201.014C66.3296 187.07 55.7787 174.052 44.0434 162.142C37.406 155.41 30.4028 149.047 23.0658 143.082C21.5619 141.859 23.7044 139.742 25.1959 140.955Z" fill="white"/>
<path d="M299.329 248.455H124.381V69.1748C124.381 31.0316 155.451 0 193.641 0H230.069C268.259 0 299.329 31.0316 299.329 69.1748V248.455Z" fill="#F2F2F2"/>
<path d="M262.902 248.455H124.381V69.1748C124.343 54.5592 128.977 40.313 137.608 28.5104C137.926 28.0773 138.244 27.6497 138.571 27.2269C142.746 21.758 147.714 16.9417 153.312 12.9369C153.628 12.7071 153.945 12.4813 154.267 12.2555C158.951 9.0181 164.018 6.37161 169.352 4.37625C169.669 4.25633 169.992 4.13618 170.314 4.02094C175.138 2.30142 180.139 1.12356 185.225 0.509098C185.54 0.466085 185.864 0.432427 186.187 0.398768C191.143 -0.130441 196.141 -0.130441 201.096 0.398768C201.419 0.432427 201.743 0.466081 202.062 0.509558C207.146 1.12406 212.146 2.30178 216.969 4.02096C217.291 4.1362 217.614 4.25635 217.931 4.37649C223.2 6.34669 228.207 8.95369 232.841 12.1393C233.163 12.3602 233.485 12.586 233.803 12.8118C236.94 15.0487 239.888 17.5408 242.614 20.2626C244.801 22.4457 246.838 24.7729 248.713 27.2283C249.039 27.6498 249.357 28.0773 249.674 28.5097C258.306 40.3125 262.94 54.5589 262.902 69.1748V248.455Z" fill="#CCCCCC"/>
<path d="M251.638 168.27C255.873 168.27 259.307 164.84 259.307 160.61C259.307 156.38 255.873 152.951 251.638 152.951C247.403 152.951 243.969 156.38 243.969 160.61C243.969 164.84 247.403 168.27 251.638 168.27Z" fill="#00B0FF"/>
<path d="M284.997 243.085H279.121L276.325 220.448L284.998 220.448L284.997 243.085Z" fill="#FFB8B8"/>
<path d="M274.924 241.408H286.256V248.535H267.788C267.788 247.599 267.973 246.672 268.331 245.808C268.69 244.943 269.215 244.157 269.878 243.495C270.541 242.834 271.327 242.309 272.193 241.951C273.059 241.592 273.986 241.408 274.924 241.408Z" fill="#2F2E41"/>
<path d="M314.235 243.085H308.359L305.563 220.448L314.236 220.448L314.235 243.085Z" fill="#FFB8B8"/>
<path d="M304.162 241.408H315.494V248.535H297.026C297.026 247.599 297.211 246.672 297.569 245.808C297.928 244.943 298.453 244.157 299.116 243.495C299.779 242.834 300.565 242.309 301.431 241.951C302.297 241.592 303.225 241.408 304.162 241.408Z" fill="#2F2E41"/>
<path d="M255.519 162.127C255.097 161.505 254.815 160.798 254.696 160.056C254.576 159.314 254.621 158.554 254.827 157.831C255.034 157.108 255.396 156.439 255.889 155.871C256.382 155.303 256.994 154.849 257.681 154.543L277.657 99.5543L287.486 104.912L264.678 157.461C265.117 158.649 265.105 159.956 264.643 161.134C264.181 162.313 263.303 163.282 262.174 163.857C261.045 164.433 259.744 164.574 258.518 164.255C257.291 163.936 256.224 163.179 255.519 162.127Z" fill="#FFB8B8"/>
<path d="M311.234 172.46C310.581 172.086 310.018 171.574 309.584 170.959C309.151 170.344 308.858 169.642 308.726 168.902C308.593 168.162 308.625 167.402 308.819 166.675C309.013 165.949 309.364 165.273 309.847 164.697L303.659 106.528L314.845 107.039L317.417 164.255C318.332 165.13 318.895 166.31 318.998 167.572C319.1 168.834 318.736 170.089 317.974 171.101C317.212 172.112 316.105 172.809 314.862 173.059C313.62 173.31 312.329 173.097 311.234 172.46Z" fill="#FFB8B8"/>
<path d="M293.389 89.3689C299.89 89.3689 305.161 84.1047 305.161 77.6111C305.161 71.1174 299.89 65.8533 293.389 65.8533C286.887 65.8533 281.616 71.1174 281.616 77.6111C281.616 84.1047 286.887 89.3689 293.389 89.3689Z" fill="#FFB8B8"/>
<path d="M311.158 159.231H275.667L275.71 158.955C275.773 158.543 282.035 117.575 277.417 104.172C276.953 102.855 276.994 101.413 277.531 100.125C278.068 98.8356 279.064 97.7907 280.326 97.1909C286.927 94.0862 299.598 90.2633 310.293 99.541C311.866 100.929 313.095 102.663 313.882 104.607C314.669 106.551 314.992 108.651 314.827 110.741L311.158 159.231Z" fill="#00B0FF"/>
<path d="M282.484 123.629L266.505 120.392L273.995 102.665C274.443 100.948 275.555 99.4786 277.086 98.5792C278.618 97.6798 280.444 97.4238 282.164 97.8674C283.884 98.3109 285.358 99.4177 286.262 100.945C287.166 102.472 287.427 104.296 286.987 106.015L282.484 123.629Z" fill="#00B0FF"/>
<path d="M302.948 129.641L301.988 107.648C301.259 103.514 303.629 99.6053 307.273 98.9664C310.919 98.3299 314.478 101.197 315.21 105.362L318.821 125.912L302.948 129.641Z" fill="#00B0FF"/>
<path d="M309.978 156.598C315.688 178.32 316.311 205.939 314.771 236.065L307.102 235.108L293.202 177.661L285.533 236.065L276.905 235.586C274.328 203.977 271.818 176.84 275.947 158.991L309.978 156.598Z" fill="#2F2E41"/>
<path d="M301.146 86.6979C298.949 89.0344 294.871 87.7801 294.585 84.5881C294.562 84.3402 294.564 84.0908 294.59 83.8433C294.737 82.4294 295.555 81.1457 295.359 79.6528C295.315 79.2813 295.176 78.9272 294.957 78.6241C293.206 76.2835 289.098 79.671 287.447 77.5521C286.434 76.2529 287.624 74.2072 286.847 72.7551C285.821 70.8385 282.783 71.784 280.878 70.7343C278.758 69.5665 278.885 66.3181 280.28 64.3422C281.982 61.9325 284.966 60.6467 287.912 60.4614C290.859 60.2761 293.785 61.0716 296.536 62.1424C299.662 63.359 302.762 65.0403 304.685 67.7853C307.024 71.1235 307.249 75.6113 306.079 79.5147C305.368 81.8892 302.939 84.7898 301.146 86.6979Z" fill="#2F2E41"/>
<path d="M402.612 248.763H48.7399C48.5889 248.763 48.4441 248.702 48.3375 248.595C48.2308 248.489 48.1709 248.344 48.1709 248.193C48.1709 248.042 48.2308 247.897 48.3375 247.791C48.4441 247.684 48.5889 247.623 48.7399 247.623H402.612C402.763 247.623 402.908 247.684 403.014 247.791C403.121 247.897 403.181 248.042 403.181 248.193C403.181 248.344 403.121 248.489 403.014 248.595C402.908 248.702 402.763 248.763 402.612 248.763Z" fill="#3F3D56"/>
<path d="M224.796 196.514H162.486C161.666 196.518 160.877 196.198 160.293 195.622C159.709 195.046 159.377 194.262 159.371 193.443V54.5334C159.377 53.7138 159.709 52.9302 160.293 52.3544C160.877 51.7787 161.666 51.4578 162.486 51.4622H224.796C225.617 51.4578 226.406 51.7787 226.99 52.3544C227.574 52.9302 227.906 53.7138 227.912 54.5334V193.443C227.906 194.262 227.574 195.046 226.99 195.622C226.406 196.198 225.617 196.518 224.796 196.514Z" fill="white"/>
<path d="M227.912 96.409H159.371V97.3664H227.912V96.409Z" fill="#CCCCCC"/>
<path d="M228.152 151.036H159.61V151.993H228.152V151.036Z" fill="#CCCCCC"/>
<path d="M181.898 51.4622H180.94V196.993H181.898V51.4622Z" fill="#CCCCCC"/>
<path d="M205.864 51.4622H204.905V196.993H205.864V51.4622Z" fill="#CCCCCC"/>
</g>
<defs>
<clipPath id="clip0_14_536">
<rect width="417" height="249" fill="white"/>
</clipPath>
</defs>
</svg>
