<svg width="601" height="527" viewBox="0 0 601 527" fill="none" xmlns="http://www.w3.org/2000/svg">
<g clip-path="url(#clip0_26_91)">
<path d="M601 0H0V527H601V0Z" fill="white"/>
<path d="M388.507 82.5787C426.503 105.415 474.383 117.185 492.279 151.967C510.243 186.661 498.223 244.368 486.67 297.243C475.118 350.207 464.032 398.252 442.063 437.074C420.159 475.809 387.305 505.233 355.051 501.456C322.731 497.679 290.944 460.789 258.758 441.29C226.571 421.791 193.916 419.683 163.332 400.272C132.748 380.861 104.234 343.971 100.094 302.865C95.9533 261.759 116.254 216.349 138.491 180.249C160.661 144.15 184.768 117.449 211.145 87.5852C237.455 57.7218 265.97 24.6965 294.217 25.2235C322.53 25.7505 350.577 59.6542 388.507 82.5787Z" fill="#4FACF7"/>
<g clip-path="url(#clip1_26_91)">
<path d="M432.016 403.425C421.831 413.087 409.422 422.873 397.222 427.488C393.705 428.858 390.076 429.732 386.403 430.095C382.968 430.439 379.512 430.105 376.161 429.105C367.357 426.377 359.19 421.6 351.288 416.019C348.706 414.193 346.154 412.283 343.617 410.331C339.476 407.143 335.376 403.843 331.264 400.623C330.649 400.135 330.037 399.656 329.421 399.182H329.418C328.425 398.406 327.43 397.641 326.433 396.887C326.258 396.752 326.082 396.622 325.903 396.487C324.019 395.065 322.103 393.675 320.154 392.319C319.915 392.156 319.676 391.989 319.438 391.826C315.667 389.221 311.792 386.859 307.827 384.748C305.223 383.382 302.585 382.151 299.922 381.1H299.918C298.899 380.701 297.877 380.324 296.851 379.98C293.775 378.929 290.64 378.165 287.472 377.694C283.107 377.036 278.692 377.079 274.336 377.824C274.041 377.875 273.75 377.926 273.455 377.987C261.666 380.338 250.906 388.266 239.064 390.134C238.68 390.195 238.299 390.251 237.915 390.292C237.751 390.311 237.587 390.334 237.423 390.348C233.981 390.715 230.518 390.609 227.096 390.032C217.533 388.461 208.221 383.587 199.838 377.443C180.24 363.079 164.347 341 154.684 315.432C153.024 311.05 151.551 306.562 150.27 301.987C146.688 289.302 144.716 275.999 144.424 262.557C143.517 215.918 164.794 169.126 198.2 148.033C231.61 126.939 275.559 133.915 302.503 166.319C318.848 185.976 328.306 212.614 340.607 236.412C352.907 260.205 370.39 282.934 392.939 286.401C404.426 288.167 416.447 284.751 427.457 289.194C433.553 291.657 438.754 296.369 442.944 302.373C445.76 306.448 448.118 310.982 449.95 315.85C451.293 319.369 452.383 323.03 453.207 326.789C453.36 327.482 453.502 328.174 453.64 328.867C459.124 356.768 450.36 386.017 432.016 403.425Z" fill="#F2F2F2"/>
<path d="M248.548 352.915H213.478C208.224 352.915 203.964 358.221 203.964 364.765V364.765C203.964 371.31 208.224 376.616 213.478 376.616H248.548C253.802 376.616 258.062 371.31 258.062 364.765C258.062 358.221 253.802 352.915 248.548 352.915Z" fill="#3F3D56"/>
<path d="M237.915 370.574V390.292C234.313 390.726 230.682 390.639 227.096 390.032V370.574H237.915Z" fill="#3F3D56"/>
<path d="M274.335 377.824C274.041 377.875 273.75 377.926 273.455 377.987C261.665 380.338 250.906 388.266 239.064 390.134C238.68 390.195 238.299 390.25 237.915 390.292C237.751 390.311 237.587 390.334 237.422 390.348C234.531 386.821 231.64 383.066 228.924 379.176C227.45 377.071 226.025 374.924 224.685 372.749C221.208 367.135 218.261 361.364 216.313 355.694C216.511 352.976 215.153 346.688 214.504 341.874L214.5 341.869C214.224 339.848 214.075 338.091 214.213 336.962C215.004 330.446 219.276 331.195 220.589 324.809C221.774 323.585 223.035 322.48 224.361 321.505C224.581 321.343 224.805 321.18 225.036 321.017L239.288 308.749L244.735 315.404L253.025 325.534L262.009 336.506L254.383 346.103C254.383 346.103 260.755 355.253 268.206 367.452C270.205 370.728 272.283 374.227 274.335 377.824Z" fill="#2F2E41"/>
<path d="M397.222 370.574V427.488C393.705 428.858 390.076 429.732 386.403 430.095V370.574H397.222Z" fill="#3F3D56"/>
<path d="M411.213 365.927H376.143C370.889 365.927 366.629 371.233 366.629 377.777V377.777C366.629 384.322 370.889 389.628 376.143 389.628H411.213C416.467 389.628 420.726 384.322 420.726 377.777C420.726 371.233 416.467 365.927 411.213 365.927Z" fill="#3F3D56"/>
<path d="M325.903 396.487C324.019 395.065 322.103 393.675 320.154 392.318C319.915 392.156 319.677 391.988 319.438 391.826L320.721 391.143L324.183 389.288L324.217 389.27L324.254 389.428L325.903 396.487Z" fill="#FFB6B6"/>
<path d="M331.264 400.623C330.649 400.135 330.037 399.656 329.421 399.182H329.418C328.425 398.406 327.43 397.641 326.433 396.887C326.258 396.752 326.082 396.622 325.903 396.487C324.019 395.065 322.103 393.675 320.154 392.318C319.915 392.156 319.676 391.988 319.438 391.826C315.667 389.221 311.792 386.858 307.827 384.748C305.223 383.382 302.585 382.15 299.922 381.1H299.918L297.825 376.737L288.405 357.084L286.334 352.767C286.334 352.767 279.271 355.369 269.276 357.865C265.639 358.775 261.617 359.668 257.397 360.42C252.887 361.22 248.156 361.856 243.455 362.163C241.213 362.312 238.978 362.386 236.777 362.363C231.088 362.316 225.622 361.652 220.835 360.072C219.238 358.204 214.426 355.662 210.978 353.334H210.975C209.527 352.358 208.326 351.424 207.695 350.592C204.061 345.805 207.165 342.074 203.934 336.85C203.891 334.934 203.97 333.016 204.17 331.116C204.203 330.8 204.237 330.479 204.278 330.154L205.296 308.61L212.862 307.364L224.376 305.468L236.848 303.414L238.221 316.807C238.221 316.807 247.932 316.194 260.237 316.398C279.999 316.733 306.443 319.186 310.025 329.717C310.361 330.707 310.696 331.706 311.032 332.705C311.83 335.094 312.621 337.495 313.405 339.908C316.244 348.645 318.953 357.465 321.426 365.802C322.963 370.988 324.411 375.988 325.743 380.668C326.814 384.432 327.806 387.992 328.713 391.268C329.541 394.261 330.291 397.017 330.958 399.489C331.063 399.875 331.164 400.256 331.264 400.623Z" fill="#2F2E41"/>
<path d="M261.663 270.091L237.765 244.81L253.314 225.209L264.161 247.34L304.37 257.27C305.579 256.137 307.027 255.466 308.536 255.34C310.046 255.213 311.553 255.637 312.873 256.559C314.192 257.481 315.268 258.861 315.969 260.531C316.67 262.202 316.966 264.09 316.82 265.966C316.674 267.842 316.093 269.625 315.148 271.097C314.203 272.569 312.935 273.666 311.497 274.256C310.06 274.845 308.516 274.901 307.054 274.416C305.592 273.932 304.274 272.928 303.262 271.526L261.663 270.091Z" fill="#A0616A"/>
<path d="M216.645 211.584C213.883 222.776 240.187 249.468 240.187 249.468C240.479 246.781 255.392 269.949 256.407 267.851C259.29 261.888 262.463 247.147 265.792 245.263C267.696 244.186 256.774 229.21 256.774 229.21C256.774 229.21 251.203 220.029 243.848 208.394C241.817 205.056 239.141 202.413 236.07 200.71C232.999 199.006 229.631 198.299 226.281 198.653C226.281 198.653 219.407 200.393 216.645 211.584Z" fill="#3F3D56"/>
<path d="M228.275 186.809C237.202 186.809 244.438 177.795 244.438 166.675C244.438 155.556 237.202 146.542 228.275 146.542C219.348 146.542 212.111 155.556 212.111 166.675C212.111 177.795 219.348 186.809 228.275 186.809Z" fill="#A0616A"/>
<path d="M236.356 200.115C239.839 202.694 241.922 207.432 243.117 212.253C245.331 221.179 246.664 230.407 247.086 239.735L248.349 267.659L263.991 327.118C250.434 341.406 199.477 330.365 199.477 330.365C199.477 330.365 197.913 329.716 199.477 327.767C201.042 325.819 202.564 327.545 201 325.597C199.436 323.648 200.514 325.819 201.036 323.871C201.557 321.922 201.036 323.221 200.514 322.572C199.993 321.922 204.551 316.077 204.551 316.077L200.38 281.947L195.166 213.104C201.422 203.363 214.006 197.62 214.006 197.62L217.257 190.33L233.514 191.95L236.356 200.115Z" fill="#3F3D56"/>
<path d="M241.599 155.979C242.855 157.146 243.786 158.774 244.26 160.635C244.442 157.594 244.454 154.542 244.295 151.499C244.104 149.361 242.896 148.88 241.497 148.323C240.233 147.819 238.804 147.251 238.419 145.175C233.338 139.018 224.494 139.329 218.44 141.476C215.11 142.658 213.193 144.176 213.022 145.066L212.986 145.249L212.851 145.333C210.283 146.932 209.784 151.981 209.817 155.936C209.879 163.386 211.944 171.847 213.108 172.534C213.169 172.571 213.185 172.557 213.212 172.529C214.963 170.785 217.101 172.661 218.04 173.681C218.594 169.051 220.377 164.786 223.106 161.566C225.834 158.347 229.35 156.359 233.092 155.92C234.314 155.773 235.526 155.52 236.72 155.163C237.326 154.967 237.948 154.866 238.574 154.86C239.65 154.839 240.706 155.23 241.599 155.979Z" fill="#2F2E41"/>
<path d="M221.232 300.424L216.288 297.27C216.023 297.034 215.835 296.688 215.758 296.295C215.681 295.901 215.72 295.486 215.868 295.125C216.017 294.765 216.264 294.483 216.565 294.33C216.867 294.178 217.202 294.166 217.51 294.297L222.455 297.451C222.72 297.686 222.908 298.032 222.985 298.426C223.062 298.819 223.023 299.234 222.874 299.595C222.726 299.956 222.479 300.238 222.177 300.39C221.876 300.542 221.54 300.554 221.232 300.424Z" fill="white"/>
<path d="M204.592 291.973L196.458 254.256L218.193 249.131L217.025 275.02L245.583 311.648C247.095 311.571 248.592 312.043 249.892 313.008C251.192 313.973 252.239 315.387 252.904 317.08C253.57 318.773 253.826 320.67 253.64 322.541C253.455 324.411 252.837 326.174 251.861 327.615C250.886 329.056 249.595 330.112 248.145 330.654C246.696 331.196 245.152 331.202 243.7 330.67C242.248 330.137 240.952 329.091 239.97 327.657C238.988 326.223 238.362 324.465 238.168 322.595L204.592 291.973Z" fill="#A0616A"/>
<path d="M194.234 211.967C186.856 219.222 196.325 259.803 196.325 259.803C197.791 257.798 199.495 287.418 201.287 286.41C206.38 283.543 215.715 273.659 219.314 274.464C221.372 274.925 219.216 254.872 219.216 254.872C219.216 254.872 218.819 243.375 218.074 228.594C217.925 224.41 216.93 220.341 215.179 216.766C213.428 213.191 210.98 210.225 208.062 208.146C208.062 208.146 201.612 204.712 194.234 211.967Z" fill="#3F3D56"/>
<path d="M449.95 315.85L154.684 315.432C153.024 311.05 151.551 306.562 150.27 301.987L442.943 302.373C445.76 306.447 448.117 310.982 449.95 315.85Z" fill="#3F3D56"/>
<path d="M355.907 413.356C354.381 414.276 352.841 415.164 351.288 416.019C348.706 414.192 346.154 412.282 343.617 410.331L353.027 405.182L355.907 413.356Z" fill="#FFB6B6"/>
<path d="M424.51 349.318C422.98 351.874 421.402 354.379 419.775 356.833C418.275 359.096 416.736 361.316 415.156 363.492C414.503 364.394 413.843 365.291 413.168 366.178C411.925 367.837 410.656 369.468 409.359 371.072C407.023 371.987 402.292 373.6 397.222 375.105C393.532 376.197 389.663 377.234 386.403 377.894C384.577 378.302 382.731 378.547 380.877 378.628C378.676 378.651 376.441 378.577 374.199 378.428C371.67 378.261 369.136 378.001 366.633 377.666C360.123 376.816 353.818 375.491 348.378 374.13C346.386 373.637 344.513 373.135 342.789 372.647C339.525 371.732 336.794 370.877 334.816 370.226C332.589 369.501 331.321 369.032 331.321 369.032L325.743 380.668L322.848 386.705L320.721 391.143L320.154 392.318C319.915 392.156 319.677 391.988 319.438 391.826C315.667 389.221 311.792 386.858 307.827 384.748C305.223 383.382 302.586 382.15 299.922 381.1H299.918C298.9 380.701 297.877 380.324 296.851 379.98C297.172 378.907 297.497 377.826 297.825 376.737C298.437 374.706 299.061 372.656 299.698 370.588C301.075 366.109 302.5 361.564 303.966 357.042C305.167 353.329 306.391 349.63 307.63 345.982C308.201 344.3 309.361 342.822 310.984 341.525C311.759 340.916 312.569 340.376 313.405 339.908C318.05 337.273 324.892 335.558 332.432 334.457C333.055 334.369 333.682 334.28 334.313 334.197C340.554 333.379 347.177 332.956 353.37 332.761C356.47 332.663 359.462 332.626 362.246 332.621C363.145 332.621 364.019 332.624 364.868 332.631H364.872C367.167 332.645 369.278 332.686 371.136 332.733C371.498 332.742 371.849 332.756 372.192 332.765H372.196C372.427 332.77 372.655 332.779 372.878 332.784C376.941 332.914 379.434 333.072 379.434 333.072L380.4 323.629L380.598 321.724L380.784 319.911V319.907L380.807 319.679L380.959 319.674L383.646 319.609L406.225 319.061L418.559 318.759L416.604 329.196L413.377 346.419C413.705 349.142 424.621 347.009 424.51 349.318Z" fill="#2F2E41"/>
<path d="M358.69 411.636C357.768 412.222 356.839 412.798 355.907 413.356C354.381 414.276 352.841 415.164 351.288 416.019C348.706 414.192 346.154 412.282 343.617 410.331C339.476 407.143 335.376 403.843 331.264 400.623C330.649 400.135 330.037 399.656 329.421 399.182H329.418C327.724 396.05 325.996 392.788 324.254 389.428C324.228 389.381 324.206 389.335 324.183 389.288C323.736 388.433 323.29 387.572 322.848 386.705C320.061 381.267 317.259 375.598 314.539 369.808L321.426 365.802L334.23 358.357L336.439 357.074L342.789 372.647L348.452 386.537L349.713 389.628L358.69 411.636Z" fill="#2F2E41"/>
<path d="M360.62 336.872L393.265 297.658L402.313 265.746L388.967 258.518C382.111 266.697 374.701 292.174 374.701 292.174L352.237 327.773C352.062 327.848 351.887 327.927 351.715 328.022C350.703 328.578 349.823 329.449 349.161 330.552C348.498 331.655 348.076 332.952 347.933 334.318C347.791 335.684 347.934 337.073 348.348 338.35C348.763 339.627 349.435 340.749 350.299 341.608C351.163 342.467 352.191 343.034 353.283 343.254C354.374 343.474 355.493 343.339 356.531 342.863C357.568 342.387 358.49 341.585 359.206 340.536C359.923 339.486 360.409 338.225 360.62 336.872Z" fill="#FFB8B8"/>
<path d="M385.211 262.081L402.14 268.775L402.204 268.762C408.505 267.447 413.733 254.628 417.009 244.107C418.087 240.636 418.067 236.785 416.953 233.332C415.839 229.88 413.714 227.083 411.008 225.507C409.005 224.361 406.785 223.936 404.598 224.28C402.412 224.623 400.346 225.722 398.634 227.451L389.941 236.299L385.211 262.081Z" fill="white"/>
<path d="M424.441 349.789L424.54 349.625C429.822 340.9 422.598 319.292 421.506 316.158L426.417 314.346L425.561 302.699L425.149 297.505L428.967 292.988L428.98 292.873L431.606 269.594L435.042 254.187C436.337 248.363 436.365 242.214 435.122 236.372C433.878 230.53 431.41 225.205 427.968 220.944L420.944 212.257L412.529 195.85L398.419 195.396L393.345 206.623C388.627 207.823 384.396 211.046 381.389 215.732C378.382 220.417 376.79 226.268 376.891 232.265L377.369 262.154L372.306 299.185L372.164 305.912L367.195 312.444L368.113 319.047L364.396 320.891L362.577 330.274C361.883 331.357 357.296 338.579 357.254 340.592C357.248 340.895 357.421 341.192 357.799 341.529C360.768 344.175 377.362 349.908 384.831 346.461C392.786 342.793 423.965 349.683 424.279 349.753L424.441 349.789Z" fill="white"/>
<path d="M404.242 190.366C414.565 190.366 422.935 179.942 422.935 167.083C422.935 154.223 414.565 143.799 404.242 143.799C393.918 143.799 385.549 154.223 385.549 167.083C385.549 179.942 393.918 190.366 404.242 190.366Z" fill="#FFB8B8"/>
<path d="M401.961 190.678C404.856 190.734 407.749 190.482 410.609 189.925C413.445 189.207 419.787 183.418 421.555 179.934C422.869 177.345 423.709 173.303 424.182 170.369C424.82 166.485 424.796 162.478 424.111 158.607C423.426 154.735 422.096 151.086 420.208 147.896C419.482 146.562 418.48 145.496 417.308 144.813C417.204 144.762 417.097 144.717 416.989 144.679C415.281 144.119 413.746 142.937 412.582 141.283C412.356 140.948 412.111 140.634 411.849 140.343C410.533 138.96 408.973 137.984 407.297 137.496C404.59 136.594 400.674 137.489 395.656 140.16C393.135 141.502 390.378 141.017 388.257 140.444C388.138 140.415 388.015 140.426 387.9 140.475C387.786 140.524 387.683 140.609 387.603 140.722C386.701 141.778 385.511 142.368 384.274 142.376C383.515 142.417 382.72 143.725 381.759 145.43C381.541 145.817 381.286 146.268 381.102 146.543L381.078 146.015L380.649 146.604C379.975 147.53 379.5 148.653 379.268 149.868C379.036 151.084 379.055 152.353 379.323 153.557C379.591 154.762 380.099 155.862 380.8 156.756C381.501 157.649 382.373 158.307 383.333 158.669C384.096 158.921 384.877 159.077 385.665 159.132C386.142 159.185 386.636 159.24 387.109 159.343C388.627 159.73 390.039 160.601 391.206 161.871C392.374 163.141 393.257 164.766 393.769 166.588C393.891 167.009 394.088 167.389 394.346 167.701C394.604 168.012 394.916 168.245 395.258 168.382C395.6 168.519 395.963 168.556 396.318 168.491C396.673 168.425 397.012 168.259 397.307 168.005C397.8 167.527 398.378 167.205 398.993 167.065C399.607 166.926 400.24 166.974 400.836 167.205C401.352 167.562 401.753 168.129 401.973 168.81C402.24 169.57 402.682 170.213 403.244 170.658C405.165 171.892 405.298 177.358 404.608 181.914C403.943 186.306 402.628 189.484 401.41 189.641C400.473 189.761 400.366 189.844 400.298 190.051L400.238 190.236L400.343 190.408C400.86 190.642 401.412 190.734 401.961 190.678Z" fill="#2F2E41"/>
<path d="M389.853 255.041L382.646 237.142C372.184 238.032 351.42 253.099 351.42 253.099L312.135 263.474C310.971 262.917 309.71 262.752 308.479 262.994C307.247 263.237 306.089 263.88 305.12 264.858C304.152 265.835 303.407 267.114 302.961 268.564C302.515 270.014 302.383 271.585 302.58 273.119C302.776 274.653 303.294 276.095 304.08 277.3C304.866 278.506 305.893 279.432 307.058 279.986C308.223 280.539 309.484 280.701 310.715 280.455C311.946 280.208 313.103 279.562 314.07 278.581L364.043 274.119L389.853 255.041Z" fill="#FFB8B8"/>
<path d="M386.946 257.98L405.77 240.556L409.085 225.672C409.728 222.747 409.701 219.657 409.007 216.751C408.313 213.844 406.981 211.237 405.16 209.224C402.677 206.516 399.462 205.084 396.163 205.216C392.865 205.349 389.73 207.037 387.392 209.938C380.309 218.745 372.23 231.032 373.965 239.551L373.983 239.638L386.946 257.98Z" fill="white"/>
<path d="M363.644 304.585H313.278V312.95H363.644V304.585Z" fill="white"/>
<path d="M234.93 304.585H184.564V312.95H234.93V304.585Z" fill="white"/>
<path d="M240.812 264.359V304.187C240.812 304.694 240.974 305.181 241.262 305.54C241.55 305.899 241.941 306.1 242.349 306.101H289.732C290.139 306.1 290.53 305.899 290.818 305.54C291.106 305.181 291.268 304.694 291.269 304.187V264.359C291.268 263.852 291.105 263.366 290.817 263.007C290.529 262.649 290.139 262.447 289.732 262.447H242.349C241.941 262.447 241.551 262.649 241.263 263.007C240.975 263.366 240.813 263.852 240.812 264.359Z" fill="#3F3D56"/>
<path d="M241.923 264.854V303.695C241.924 303.966 242.01 304.226 242.164 304.418C242.318 304.61 242.527 304.718 242.745 304.718H289.337C289.555 304.718 289.764 304.61 289.918 304.418C290.072 304.226 290.158 303.966 290.159 303.695V264.854C290.159 264.583 290.072 264.322 289.918 264.13C289.764 263.938 289.555 263.83 289.337 263.829H242.745C242.527 263.83 242.318 263.938 242.164 264.13C242.01 264.322 241.923 264.583 241.923 264.854Z" fill="white"/>
<path d="M239.821 311.954C239.908 312.09 240.018 312.199 240.143 312.274C240.269 312.349 240.407 312.387 240.546 312.386H291.282C291.421 312.386 291.558 312.347 291.683 312.273C291.808 312.198 291.919 312.09 292.006 311.956C292.094 311.822 292.156 311.665 292.189 311.497C292.221 311.329 292.223 311.154 292.195 310.985L291.407 306.325C291.375 306.135 291.304 305.958 291.203 305.81C291.101 305.663 290.972 305.549 290.826 305.48C290.72 305.428 290.608 305.402 290.495 305.402H241.33C241.217 305.402 241.105 305.428 240.999 305.48C240.853 305.549 240.724 305.663 240.622 305.81C240.521 305.958 240.45 306.135 240.418 306.325L239.63 310.985C239.602 311.154 239.605 311.328 239.638 311.496C239.671 311.664 239.733 311.82 239.821 311.954Z" fill="#2F2E41"/>
<path d="M288.754 307.409H289.952C290.053 307.409 290.134 307.308 290.134 307.182V306.468C290.134 306.343 290.053 306.241 289.952 306.241H288.754C288.653 306.241 288.572 306.343 288.572 306.468V307.182C288.572 307.308 288.653 307.409 288.754 307.409Z" fill="#3F3D56"/>
<path d="M285.629 307.409H286.827C286.927 307.409 287.009 307.308 287.009 307.182V306.468C287.009 306.343 286.927 306.241 286.827 306.241H285.629C285.528 306.241 285.446 306.343 285.446 306.468V307.182C285.446 307.308 285.528 307.409 285.629 307.409Z" fill="#3F3D56"/>
<path d="M282.503 307.409H283.702C283.802 307.409 283.884 307.308 283.884 307.182V306.468C283.884 306.343 283.802 306.241 283.702 306.241H282.503C282.403 306.241 282.321 306.343 282.321 306.468V307.182C282.321 307.308 282.403 307.409 282.503 307.409Z" fill="#3F3D56"/>
<path d="M279.378 307.409H280.576C280.677 307.409 280.758 307.308 280.758 307.182V306.468C280.758 306.343 280.677 306.241 280.576 306.241H279.378C279.277 306.241 279.196 306.343 279.196 306.468V307.182C279.196 307.308 279.277 307.409 279.378 307.409Z" fill="#3F3D56"/>
<path d="M276.253 307.409H277.451C277.552 307.409 277.633 307.308 277.633 307.182V306.468C277.633 306.343 277.552 306.241 277.451 306.241H276.253C276.152 306.241 276.07 306.343 276.07 306.468V307.182C276.07 307.308 276.152 307.409 276.253 307.409Z" fill="#3F3D56"/>
<path d="M273.127 307.409H274.326C274.426 307.409 274.508 307.308 274.508 307.182V306.468C274.508 306.343 274.426 306.241 274.326 306.241H273.127C273.027 306.241 272.945 306.343 272.945 306.468V307.182C272.945 307.308 273.027 307.409 273.127 307.409Z" fill="#3F3D56"/>
<path d="M270.002 307.409H271.2C271.301 307.409 271.382 307.308 271.382 307.182V306.468C271.382 306.343 271.301 306.241 271.2 306.241H270.002C269.901 306.241 269.82 306.343 269.82 306.468V307.182C269.82 307.308 269.901 307.409 270.002 307.409Z" fill="#3F3D56"/>
<path d="M266.877 307.409H268.075C268.176 307.409 268.257 307.308 268.257 307.182V306.468C268.257 306.343 268.176 306.241 268.075 306.241H266.877C266.776 306.241 266.694 306.343 266.694 306.468V307.182C266.694 307.308 266.776 307.409 266.877 307.409Z" fill="#3F3D56"/>
<path d="M263.751 307.409H264.95C265.05 307.409 265.132 307.308 265.132 307.182V306.468C265.132 306.343 265.05 306.241 264.95 306.241H263.751C263.651 306.241 263.569 306.343 263.569 306.468V307.182C263.569 307.308 263.651 307.409 263.751 307.409Z" fill="#3F3D56"/>
<path d="M260.626 307.409H261.824C261.925 307.409 262.006 307.308 262.006 307.182V306.468C262.006 306.343 261.925 306.241 261.824 306.241H260.626C260.525 306.241 260.444 306.343 260.444 306.468V307.182C260.444 307.308 260.525 307.409 260.626 307.409Z" fill="#3F3D56"/>
<path d="M257.501 307.409H258.699C258.8 307.409 258.881 307.308 258.881 307.182V306.468C258.881 306.343 258.8 306.241 258.699 306.241H257.501C257.4 306.241 257.318 306.343 257.318 306.468V307.182C257.318 307.308 257.4 307.409 257.501 307.409Z" fill="#3F3D56"/>
<path d="M254.375 307.409H255.574C255.674 307.409 255.756 307.308 255.756 307.182V306.468C255.756 306.343 255.674 306.241 255.574 306.241H254.375C254.275 306.241 254.193 306.343 254.193 306.468V307.182C254.193 307.308 254.275 307.409 254.375 307.409Z" fill="#3F3D56"/>
<path d="M251.25 307.409H252.448C252.549 307.409 252.63 307.308 252.63 307.182V306.468C252.63 306.343 252.549 306.241 252.448 306.241H251.25C251.149 306.241 251.068 306.343 251.068 306.468V307.182C251.068 307.308 251.149 307.409 251.25 307.409Z" fill="#3F3D56"/>
<path d="M248.125 307.409H249.323C249.424 307.409 249.505 307.308 249.505 307.182V306.468C249.505 306.343 249.424 306.241 249.323 306.241H248.125C248.024 306.241 247.942 306.343 247.942 306.468V307.182C247.942 307.308 248.024 307.409 248.125 307.409Z" fill="#3F3D56"/>
<path d="M244.999 307.409H246.198C246.298 307.409 246.38 307.308 246.38 307.182V306.468C246.38 306.343 246.298 306.241 246.198 306.241H244.999C244.899 306.241 244.817 306.343 244.817 306.468V307.182C244.817 307.308 244.899 307.409 244.999 307.409Z" fill="#3F3D56"/>
<path d="M241.874 307.409H243.072C243.173 307.409 243.254 307.308 243.254 307.182V306.468C243.254 306.343 243.173 306.241 243.072 306.241H241.874C241.773 306.241 241.692 306.343 241.692 306.468V307.182C241.692 307.308 241.773 307.409 241.874 307.409Z" fill="#3F3D56"/>
<path d="M288.791 309.356H289.989C290.09 309.356 290.171 309.254 290.171 309.129V308.415C290.171 308.289 290.09 308.188 289.989 308.188H288.791C288.69 308.188 288.608 308.289 288.608 308.415V309.129C288.608 309.254 288.69 309.356 288.791 309.356Z" fill="#3F3D56"/>
<path d="M285.665 309.356H286.864C286.964 309.356 287.046 309.254 287.046 309.129V308.415C287.046 308.289 286.964 308.188 286.864 308.188H285.665C285.565 308.188 285.483 308.289 285.483 308.415V309.129C285.483 309.254 285.565 309.356 285.665 309.356Z" fill="#3F3D56"/>
<path d="M282.54 309.356H283.739C283.839 309.356 283.921 309.254 283.921 309.129V308.415C283.921 308.289 283.839 308.188 283.739 308.188H282.54C282.44 308.188 282.358 308.289 282.358 308.415V309.129C282.358 309.254 282.44 309.356 282.54 309.356Z" fill="#3F3D56"/>
<path d="M279.415 309.356H280.613C280.714 309.356 280.795 309.254 280.795 309.129V308.415C280.795 308.289 280.714 308.188 280.613 308.188H279.415C279.314 308.188 279.233 308.289 279.233 308.415V309.129C279.233 309.254 279.314 309.356 279.415 309.356Z" fill="#3F3D56"/>
<path d="M276.289 309.356H277.488C277.588 309.356 277.67 309.254 277.67 309.129V308.415C277.67 308.289 277.588 308.188 277.488 308.188H276.289C276.189 308.188 276.107 308.289 276.107 308.415V309.129C276.107 309.254 276.189 309.356 276.289 309.356Z" fill="#3F3D56"/>
<path d="M273.164 309.356H274.363C274.463 309.356 274.545 309.254 274.545 309.129V308.415C274.545 308.289 274.463 308.188 274.363 308.188H273.164C273.064 308.188 272.982 308.289 272.982 308.415V309.129C272.982 309.254 273.064 309.356 273.164 309.356Z" fill="#3F3D56"/>
<path d="M270.039 309.356H271.237C271.338 309.356 271.419 309.254 271.419 309.129V308.415C271.419 308.289 271.338 308.188 271.237 308.188H270.039C269.938 308.188 269.857 308.289 269.857 308.415V309.129C269.857 309.254 269.938 309.356 270.039 309.356Z" fill="#3F3D56"/>
<path d="M266.913 309.356H268.112C268.212 309.356 268.294 309.254 268.294 309.129V308.415C268.294 308.289 268.212 308.188 268.112 308.188H266.913C266.813 308.188 266.731 308.289 266.731 308.415V309.129C266.731 309.254 266.813 309.356 266.913 309.356Z" fill="#3F3D56"/>
<path d="M263.788 309.356H264.987C265.087 309.356 265.169 309.254 265.169 309.129V308.415C265.169 308.289 265.087 308.188 264.987 308.188H263.788C263.688 308.188 263.606 308.289 263.606 308.415V309.129C263.606 309.254 263.688 309.356 263.788 309.356Z" fill="#3F3D56"/>
<path d="M260.663 309.356H261.861C261.962 309.356 262.043 309.254 262.043 309.129V308.415C262.043 308.289 261.962 308.188 261.861 308.188H260.663C260.562 308.188 260.481 308.289 260.481 308.415V309.129C260.481 309.254 260.562 309.356 260.663 309.356Z" fill="#3F3D56"/>
<path d="M257.537 309.356H258.736C258.836 309.356 258.918 309.254 258.918 309.129V308.415C258.918 308.289 258.836 308.188 258.736 308.188H257.537C257.437 308.188 257.355 308.289 257.355 308.415V309.129C257.355 309.254 257.437 309.356 257.537 309.356Z" fill="#3F3D56"/>
<path d="M254.412 309.356H255.611C255.711 309.356 255.793 309.254 255.793 309.129V308.415C255.793 308.289 255.711 308.188 255.611 308.188H254.412C254.312 308.188 254.23 308.289 254.23 308.415V309.129C254.23 309.254 254.312 309.356 254.412 309.356Z" fill="#3F3D56"/>
<path d="M251.287 309.356H252.485C252.586 309.356 252.667 309.254 252.667 309.129V308.415C252.667 308.289 252.586 308.188 252.485 308.188H251.287C251.186 308.188 251.105 308.289 251.105 308.415V309.129C251.105 309.254 251.186 309.356 251.287 309.356Z" fill="#3F3D56"/>
<path d="M248.161 309.356H249.36C249.46 309.356 249.542 309.254 249.542 309.129V308.415C249.542 308.289 249.46 308.188 249.36 308.188H248.161C248.061 308.188 247.979 308.289 247.979 308.415V309.129C247.979 309.254 248.061 309.356 248.161 309.356Z" fill="#3F3D56"/>
<path d="M245.036 309.356H246.235C246.335 309.356 246.417 309.254 246.417 309.129V308.415C246.417 308.289 246.335 308.188 246.235 308.188H245.036C244.936 308.188 244.854 308.289 244.854 308.415V309.129C244.854 309.254 244.936 309.356 245.036 309.356Z" fill="#3F3D56"/>
<path d="M241.911 309.356H243.109C243.21 309.356 243.292 309.254 243.292 309.129V308.415C243.292 308.289 243.21 308.188 243.109 308.188H241.911C241.81 308.188 241.729 308.289 241.729 308.415V309.129C241.729 309.254 241.81 309.356 241.911 309.356Z" fill="#3F3D56"/>
<path d="M262.851 311.691H274.988C275.088 311.691 275.17 311.59 275.17 311.465V310.75C275.17 310.625 275.088 310.524 274.988 310.524H262.851C262.75 310.524 262.668 310.625 262.668 310.75V311.465C262.668 311.59 262.75 311.691 262.851 311.691Z" fill="#3F3D56"/>
</g>
</g>
<defs>
<clipPath id="clip0_26_91">
<rect width="601" height="527" fill="white"/>
</clipPath>
<clipPath id="clip1_26_91">
<rect width="310.862" height="294.215" fill="white" transform="translate(144.396 136)"/>
</clipPath>
</defs>
</svg>
