<svg width="601" height="527" viewBox="0 0 601 527" fill="none" xmlns="http://www.w3.org/2000/svg">
<g clip-path="url(#clip0_26_91)">
<path d="M601 0L0 0L0 527H601V0Z" fill="white"/>
<path d="M307.732 464.56C263.462 462.235 215.661 474.321 183.53 452.013C151.381 429.813 134.903 373.218 120.28 321.108C105.615 268.92 92.847 221.295 94.0193 176.703C95.1738 132.219 110.369 90.8149 140.62 79.0074C170.931 67.1687 216.315 84.8179 253.889 86.9236C291.462 89.0294 321.284 75.5604 357.401 78.341C393.518 81.1216 436.014 100.307 458.967 134.658C481.921 169.008 485.316 218.633 482.629 260.947C480.002 303.229 471.252 338.123 461.982 376.874C452.772 415.593 443.1 458.14 417.912 470.936C392.665 483.763 351.984 466.995 307.732 464.56Z" fill="#4FACF7"/>
<g clip-path="url(#clip1_26_91)">
<path d="M237.503 325.634H133.453C132.802 325.633 132.179 325.374 131.719 324.913C131.259 324.453 131.001 323.829 131 323.177V198.392C131.001 197.741 131.259 197.117 131.719 196.656C132.179 196.196 132.802 195.937 133.453 195.936H237.503C238.153 195.937 238.777 196.196 239.237 196.656C239.696 197.117 239.955 197.741 239.956 198.392V323.177C239.955 323.829 239.696 324.453 239.237 324.913C238.777 325.374 238.153 325.633 237.503 325.634ZM133.453 196.919C133.063 196.919 132.689 197.074 132.413 197.351C132.137 197.627 131.982 198.002 131.981 198.392V323.177C131.982 323.568 132.137 323.943 132.413 324.219C132.689 324.495 133.063 324.651 133.453 324.651H237.503C237.893 324.651 238.267 324.495 238.543 324.219C238.819 323.943 238.974 323.568 238.975 323.177V198.392C238.974 198.002 238.819 197.627 238.543 197.351C238.267 197.074 237.893 196.919 237.503 196.919H133.453Z" fill="#CACACA"/>
<path d="M223.496 222.465H147.46V269.628H223.496V222.465Z" fill="black"/>
<path d="M166.591 287.314H147.46V299.105H166.591V287.314Z" fill="#E4E4E4"/>
<path d="M223.496 287.314H204.364V299.105H223.496V287.314Z" fill="#E4E4E4"/>
<path d="M195.044 287.314H175.912V299.105H195.044V287.314Z" fill="#E4E4E4"/>
<path d="M380.745 265.698H276.695C276.045 265.697 275.421 265.438 274.962 264.977C274.502 264.517 274.243 263.893 274.242 263.241V138.456C274.243 137.805 274.502 137.181 274.962 136.72C275.421 136.26 276.045 136.001 276.695 136H380.745C381.396 136.001 382.019 136.26 382.479 136.72C382.939 137.181 383.197 137.805 383.198 138.456V263.241C383.197 263.893 382.939 264.517 382.479 264.977C382.019 265.438 381.396 265.697 380.745 265.698ZM276.695 136.983C276.305 136.983 275.931 137.138 275.655 137.415C275.379 137.691 275.224 138.066 275.224 138.456V263.241C275.224 263.632 275.379 264.007 275.655 264.283C275.931 264.559 276.305 264.715 276.695 264.715H380.745C381.136 264.715 381.51 264.559 381.786 264.283C382.062 264.007 382.217 263.632 382.217 263.241V138.456C382.217 138.066 382.062 137.691 381.786 137.415C381.51 137.138 381.136 136.983 380.745 136.983H276.695Z" fill="#CACACA"/>
<path d="M381.988 344.794H277.938C277.288 344.793 276.664 344.534 276.205 344.073C275.745 343.613 275.486 342.988 275.485 342.337V305.491C275.486 304.84 275.745 304.216 276.205 303.755C276.664 303.295 277.288 303.036 277.938 303.035H381.988C382.639 303.036 383.262 303.295 383.722 303.755C384.182 304.216 384.44 304.84 384.441 305.491V342.337C384.44 342.988 384.182 343.613 383.722 344.073C383.262 344.534 382.639 344.793 381.988 344.794ZM277.938 304.017C277.548 304.018 277.174 304.173 276.898 304.45C276.622 304.726 276.467 305.101 276.466 305.491V342.337C276.467 342.728 276.622 343.103 276.898 343.379C277.174 343.655 277.548 343.811 277.938 343.811H381.988C382.378 343.811 382.753 343.655 383.028 343.379C383.304 343.103 383.46 342.728 383.46 342.337V305.491C383.46 305.101 383.304 304.726 383.028 304.45C382.753 304.173 382.378 304.018 381.988 304.017H277.938Z" fill="#CACACA"/>
<path d="M360.606 219.763H296.834C293.583 219.763 290.948 222.402 290.948 225.658V225.658C290.948 228.914 293.583 231.554 296.834 231.554H360.606C363.858 231.554 366.493 228.914 366.493 225.658C366.493 222.402 363.858 219.763 360.606 219.763Z" fill="#E4E4E4"/>
<path d="M360.606 238.432H296.834C293.583 238.432 290.948 241.071 290.948 244.327V244.327C290.948 247.583 293.583 250.222 296.834 250.222H360.606C363.858 250.222 366.493 247.583 366.493 244.327C366.493 241.071 363.858 238.432 360.606 238.432Z" fill="#E4E4E4"/>
<path d="M328.72 206.499C343.892 206.499 356.192 194.181 356.192 178.987C356.192 163.793 343.892 151.475 328.72 151.475C313.549 151.475 301.249 163.793 301.249 178.987C301.249 194.181 313.549 206.499 328.72 206.499Z" fill="black"/>
<path d="M359.642 318.019H331.68C328.429 318.019 325.793 320.658 325.793 323.914C325.793 327.17 328.429 329.81 331.68 329.81H359.642C362.893 329.81 365.529 327.17 365.529 323.914C365.529 320.658 362.893 318.019 359.642 318.019Z" fill="#E4E4E4"/>
<path d="M305.19 334.722C311.151 334.722 315.982 329.883 315.982 323.914C315.982 317.945 311.151 313.106 305.19 313.106C299.23 313.106 294.398 317.945 294.398 323.914C294.398 329.883 299.23 334.722 305.19 334.722Z" fill="black"/>
<path d="M552.509 474H365.607C365.477 474 365.353 473.948 365.261 473.856C365.169 473.764 365.117 473.639 365.117 473.509C365.117 473.378 365.169 473.253 365.261 473.161C365.353 473.069 365.477 473.017 365.607 473.017H552.509C552.64 473.017 552.764 473.069 552.856 473.161C552.948 473.253 553 473.378 553 473.509C553 473.639 552.948 473.764 552.856 473.856C552.764 473.948 552.64 474 552.509 474Z" fill="#CACACA"/>
<path d="M497.141 367.906C496.799 367.416 496.568 366.856 496.465 366.267C496.362 365.677 496.389 365.073 496.545 364.495C496.7 363.917 496.98 363.381 497.365 362.924C497.75 362.466 498.231 362.099 498.773 361.847L497.329 347.377L504.01 350.889L504.357 364.092C504.719 365.032 504.723 366.072 504.37 367.015C504.017 367.959 503.33 368.739 502.441 369.209C501.551 369.679 500.52 369.806 499.544 369.566C498.567 369.326 497.712 368.735 497.141 367.906Z" fill="#FFB6B6"/>
<path d="M438.625 365.871C438.283 365.381 438.052 364.821 437.949 364.232C437.846 363.643 437.873 363.038 438.029 362.46C438.184 361.883 438.464 361.346 438.849 360.889C439.234 360.431 439.715 360.064 440.257 359.813L438.813 345.342L445.494 348.854L445.841 362.057C446.203 362.997 446.207 364.037 445.854 364.981C445.501 365.924 444.814 366.704 443.925 367.174C443.035 367.644 442.004 367.771 441.027 367.531C440.051 367.291 439.196 366.7 438.625 365.871Z" fill="#FFB6B6"/>
<path d="M483.194 467.974H478.213L475.842 448.73H483.195L483.194 467.974Z" fill="#FFB6B6"/>
<path d="M484.465 472.81L468.401 472.81V472.606C468.401 470.946 469.06 469.353 470.233 468.179C471.405 467.004 472.995 466.345 474.654 466.345L484.465 466.345L484.465 472.81Z" fill="#2F2E41"/>
<path d="M446.216 467.974H441.234L438.864 448.73H446.216L446.216 467.974Z" fill="#FFB6B6"/>
<path d="M447.486 472.81L431.422 472.81V472.606C431.422 470.946 432.081 469.353 433.254 468.179C434.426 467.004 436.016 466.345 437.675 466.345L447.486 466.345L447.486 472.81Z" fill="#2F2E41"/>
<path d="M479.608 267.878C485.984 264.388 488.327 256.382 484.842 249.997C481.357 243.612 473.363 241.266 466.987 244.756C460.612 248.246 458.268 256.252 461.754 262.637C465.239 269.022 473.233 271.369 479.608 267.878Z" fill="#FFB8B8"/>
<path d="M444.259 359.033L441.82 362.901L436.944 463.622L447.103 463.215L467.422 378.16L475.549 464.029L484.489 464.436L491.742 364.578L444.259 359.033Z" fill="#2F2E41"/>
<path d="M497.492 282.931L480.831 273.978L462.138 272.757L445.666 282.931C445.666 282.931 460.107 325.662 444.258 350.487L441.82 362.289L492.209 365.951C492.209 365.951 488.958 313.046 493.428 306.535C497.898 300.024 497.492 282.931 497.492 282.931Z" fill="#3F3D56"/>
<path d="M491.742 285.149L497.492 282.931C497.492 282.931 507.651 291.884 507.245 313.453C506.838 335.022 504.643 359.033 504.643 359.033L497.086 360.254L493.022 325.255L487.333 294.733L491.742 285.149Z" fill="#3F3D56"/>
<path d="M451.634 285.149L445.884 282.931C445.884 282.931 435.725 291.884 436.131 313.453C436.538 335.022 438.733 359.033 438.733 359.033L446.29 360.254L450.354 325.255L456.043 294.733L451.634 285.149Z" fill="#3F3D56"/>
<path d="M482.809 243.025C481.657 241.893 480.277 241.02 478.761 240.464C477.246 239.909 475.629 239.683 474.02 239.803C471.188 240.032 471.004 240.101 468.46 241.368C466.875 242.119 465.336 242.962 463.849 243.893C463.835 243.288 461.326 240.973 460.919 241.421C460.514 241.87 461.967 244.782 461.642 245.293C461.317 245.803 458.382 243.978 458.075 243.456C460.343 246.588 463.337 252.78 462.619 256.581C463.115 256.02 463.766 255.619 464.489 255.429C465.213 255.238 465.977 255.267 466.684 255.511C467.392 255.755 468.011 256.204 468.464 256.8C468.917 257.396 469.183 258.114 469.229 258.862C469.39 261.461 466.985 264.31 468.557 266.384C469.457 267.57 471.171 267.669 472.658 267.662L483.664 266.433C486.028 262.659 487.502 259.666 488.146 255.258C488.789 250.85 485.964 246.165 482.809 243.025Z" fill="#2F2E41"/>
</g>
</g>
<defs>
<clipPath id="clip0_26_91">
<rect width="601" height="527" fill="white"/>
</clipPath>
<clipPath id="clip1_26_91">
<rect width="422" height="338" fill="white" transform="translate(131 136)"/>
</clipPath>
</defs>
</svg>
